<svg width="309" height="307" viewBox="0 0 309 307" fill="none" xmlns="http://www.w3.org/2000/svg">
<path d="M45.2041 45.2584L129.231 45.2584L129.23 261.168L91.4718 261.168L91.4718 306.36L174.368 306.36L174.368 180.168L262.915 180.168L262.915 261.168L218.642 261.168L218.642 306.36L278.736 306.36C294.957 306.36 308.053 293.181 308.053 277.008L308.053 164.261C308.053 148.088 294.957 134.91 278.736 134.91L174.368 134.91L174.368 29.3515C174.368 13.1782 161.272 4.82032e-05 145.052 4.67852e-05L29.3162 3.66672e-05C13.1624 3.5255e-05 1.03778e-05 13.1117 8.95803e-06 29.3514L3.65151e-06 90.051L45.1376 90.051L45.1376 45.2584L45.2041 45.2584Z" fill="#247CFF"/>
</svg>
